<?xml version="1.0" encoding="UTF-8"?>
<svg id="PRINT" xmlns="http://www.w3.org/2000/svg" viewBox="0 0 768 1024">
  <defs>
    <style>
      .cls-1 {
        fill: #fbfbfb;
      }

      .cls-2 {
        fill: #2781c5;
      }
      path { fill: #000; }
        @media (prefers-color-scheme: dark) {
            path { fill: #FFF; }
        }
    </style>
  </defs>
  <path class="cls-2" d="M312.31,258.99c2.65,4.52,1.01,5.34-4.91,2.46-57.76-31.6-176.09-85.16-216.6-4.12-39.01,78.05,3.13,237.12,28.17,318.9,12.87,42.04,30.06,82.85,43.5,124.68-1.98,1.96-35.02-11.49-38.48-15.54-5.82-6.81-21.19-50.07-25.47-61.69-28.59-77.72-70.78-223.31-70.21-304.12,1.27-182.04,186.4-148.09,284.02-60.56Z"/>
  <path class="cls-2" d="M206.69,295.82c48.01-.64,80.92,5.44,129.65-9.13,67.69-20.23,148.11-102.88,221.66-80.53,10.73,3.26,23.86,11.98,29.9,21.67,23.58,37.82,9.03,145.98,1.21,191.2-1.67,9.63-11.32,63.32-15.59,66.04-1.3.83-19.05,6.26-22,6.91-5.15,1.14-3.53-2.07-3.19-5.66,5.25-56.1,33.92-152.73,14.24-206.18-10.05-27.29-33.1-39.55-61.76-35.3-35.02,5.19-94.64,39.02-133.18,51.02-56.92,17.71-119.59,27.93-175.68,2.41-.34-3.96,4.57-4.78,14.74-2.46Z"/>
  <path class="cls-1" d="M456.21,447.01c-35.7,41.58-99.46,80.64-156.31,68.68-19.69-4.14-41.56-38.42-23.21-38.29,4.23.03,16.82,19.49,34.62,21.98,55.99,7.83,112.34-40.89,140.57-84.94,44.51-69.45,2.52-88.44-64.33-81.48-82.37,8.57-171.37,67.57-226.34,127.32-7.08,7.7-40.67,52.6-44.22,54.02-4.82,1.94-3.39-3.06-4.28-5.4-3.35-8.88-7.13-22.28-3.01-31.36,1.57-3.45,35.92-36.71,41.64-41.84,69.14-62.03,199.18-138.98,294.65-112.69,68.84,18.96,45.01,83.46,10.21,124Z"/>
  <path class="cls-2" d="M538.3,583.07c.82-10.27,13.82-6.11,7.37,4.91-20.65,55.14-36.4,115.2-70.23,164.27-21.14,30.66-41.09,52.44-76.99,25.84-17.47-12.94-26.71-28.49-34.55-47.71-2.23-3.65-1.4-4.8,2.46-2.46,5.27,10.58,29.37,30.67,41.61,33.27,40.7,8.66,64.56-41.48,78.4-71.68,12.88-28.11,20.01-63.48,32.28-89.26-1.05-9.54,10.47-21.04,19.65-17.19Z"/>
  <path class="cls-2" d="M152.66,745.12c6.25,1.3,25.18-2.05,29.08.39,1.36.85,10.81,23.76,14.1,28.86,28.97,44.9,70.24,28.95,97.9-7.32,5.26-6.9,15.66-30.77,21.04-33.01,8.4-3.51.3,21-1.28,25.75-10.23,30.83-37.59,74.78-73.77,76.23-42.53,1.71-75.46-56.1-87.07-90.9Z"/>
  <path class="cls-2" d="M739.71,460.42c-3.71,5.8-13.99,5.05-20.24,7.91-15.17,6.95-19.54,23.58-22.66,38.66-7.2-27.45-15.94-40.41-45.39-45.37,28.86-6.16,37.55-17.87,45.39-45.37,3.4,23.95,17.64,42.08,42.9,44.17Z"/>
  <path class="cls-2" d="M661.1,408.79c-.22,4.15-6.34,3.21-9.69,6.23-3.23,2.91-4.8,8.23-8.73,10.92-2.28-8.93-6.47-13.44-15.94-14.75l16.29-12.07,18.06,9.68Z"/>
  <path class="cls-2" d="M206.69,295.82c-4.64.06-12.07-1.67-14.74,2.46-3.98-1.81-10.62-1.34-12.28-7.34l27.02,4.89Z"/>
  <path class="cls-2" d="M312.31,258.99c4.08,3.66,9.99,6.69,12.28,12.25-7.25.62-12.18-7.06-17.19-9.8l4.91-2.46Z"/>
  <path class="cls-2" d="M363.9,730.38c-.74-1.82-8.21-8.59-4.9-12.26,4.88-5.41,6.24,7.56,7.36,9.81l-2.46,2.46Z"/>
  <path class="cls-1" d="M553.04,575.71c-4.7,6.12-13.88,5.13-12.28-2.46,15.23-12.16,14.85-13.63-1.15-4.41l-27.65,14.11,4.24,2.58c13.19-4.92,8.63,7.88,0,7.37-7.49,9.33-108.53,60.48-127.68,70.02-73.69,36.72-210.39,105.26-285.8,49.86-45.59-33.5-56.56-88.88-43.39-141.97l6.81,4.21c24.07,66.23,25.78,138.81,114.65,140.75,36.04.79,94.21-26.21,126.73-42.97,6.68-3.44,40.99-21.27,43.39-24.12,3.58-4.25,3.09-13.91,7.27-16.69,11.38-7.57,36.26-14.07,50.74-22.33,65.96-37.61,125.45-116.95,211.42-107.34,6.66.74,42.71,10.05,40.78,18.13l-108.07,55.27ZM533.39,578.16c1.86-.92,4.24-3.36,7.37-4.91,19.65-9.77,39.11-20.11,58.95-29.5.67-4.7-2.98-8.79-7.45-6.31-10.89,7.4-91.81,43.4-93.26,49.34,2.99,12.39,10.77,1.79,17.19-1.25,5.72-2.71,11.64-4.63,17.19-7.37Z"/>
</svg>