<?xml version="1.0" encoding="UTF-8"?><svg id="PRINT" xmlns="http://www.w3.org/2000/svg" viewBox="0 0 768 678.36"><defs><style>.cls-1{fill:#07101c;}.cls-2{fill:#06101c;}.cls-3{fill:#2781c5;}</style></defs><path class="cls-3" d="M331.86,93.64c2.62,4.47,1,5.28-4.86,2.43-57.14-31.26-174.21-84.25-214.28-4.08-38.59,77.21,3.09,234.58,27.86,315.48,12.73,41.59,29.74,81.97,43.03,123.34-1.96,1.94-34.65-11.37-38.07-15.37-5.76-6.74-20.97-49.53-25.2-61.03-28.29-76.88-70.02-220.92-69.46-300.86C52.15-26.54,235.29,7.05,331.86,93.64Z"/><path class="cls-3" d="M227.37,130.07c47.49-.64,80.05,5.38,128.26-9.03,66.96-20.02,146.53-101.78,219.28-79.66,10.61,3.23,23.6,11.85,29.58,21.44,23.33,37.41,8.94,144.42,1.2,189.15-1.65,9.53-11.2,62.64-15.42,65.33-1.28.82-18.84,6.19-21.76,6.84-5.09,1.13-3.49-2.04-3.16-5.59,5.19-55.5,33.55-151.09,14.08-203.97-9.94-27-32.74-39.12-61.1-34.92-34.65,5.13-93.62,38.61-131.76,50.47-56.31,17.52-118.31,27.63-173.8,2.38-.34-3.92,4.52-4.73,14.58-2.43Z"/><path class="cls-1" d="M474.22,279.64c-35.32,41.13-98.4,79.78-154.64,67.95-19.48-4.1-41.12-38.01-22.96-37.88,4.18.03,16.64,19.28,34.25,21.75,55.39,7.75,111.14-40.45,139.06-84.03,44.03-68.7,2.49-87.49-63.64-80.61-81.49,8.48-169.54,66.84-223.91,125.96-7.01,7.62-40.24,52.03-43.74,53.45-4.77,1.92-3.36-3.03-4.23-5.35-3.31-8.79-7.05-22.04-2.97-31.02,1.55-3.41,35.53-36.32,41.2-41.4,68.4-61.36,197.05-137.49,291.49-111.48,68.1,18.76,44.53,82.56,10.1,122.67Z"/><path class="cls-3" d="M555.43,414.25c.81-10.16,13.67-6.04,7.29,4.86-20.43,54.55-36.01,113.96-69.48,162.51-20.91,30.33-40.65,51.88-76.17,25.56-17.28-12.81-26.43-28.19-34.18-47.2-2.21-3.61-1.39-4.75,2.43-2.43,5.21,10.47,29.06,30.34,41.16,32.92,40.26,8.57,63.87-41.03,77.56-70.91,12.74-27.8,19.8-62.8,31.94-88.31-1.04-9.44,10.36-20.82,19.44-17Z"/><path class="cls-3" d="M173.92,574.56c6.19,1.28,24.91-2.03,28.76.38,1.35.84,10.7,23.51,13.95,28.55,28.66,44.42,69.48,28.64,96.85-7.24,5.21-6.83,15.49-30.44,20.81-32.66,8.31-3.47.3,20.77-1.26,25.48-10.12,30.5-37.19,73.98-72.98,75.42-42.07,1.69-74.65-55.5-86.14-89.93Z"/><path class="cls-3" d="M754.68,292.91c-3.67,5.74-13.84,5-20.02,7.83-15.01,6.87-19.33,23.33-22.42,38.24-7.12-27.16-15.77-39.98-44.91-44.88,28.55-6.09,37.15-17.68,44.91-44.88,3.37,23.69,17.45,41.63,42.44,43.7Z"/><path class="cls-3" d="M676.92,241.83c-.22,4.1-6.27,3.17-9.58,6.16-3.19,2.88-4.74,8.15-8.64,10.8-2.26-8.84-6.4-13.3-15.77-14.59l16.12-11.94,17.87,9.57Z"/><path class="cls-3" d="M227.37,130.07c-4.59.06-11.94-1.65-14.58,2.43-3.94-1.79-10.51-1.32-12.15-7.26l26.73,4.83Z"/><path class="cls-3" d="M331.86,93.64c4.04,3.62,9.88,6.62,12.15,12.12-7.17.61-12.05-6.98-17.01-9.69l4.86-2.43Z"/><path class="cls-3" d="M382.9,559.98c-.73-1.8-8.12-8.5-4.85-12.13,4.83-5.35,6.17,7.48,7.28,9.7l-2.43,2.43Z"/><path class="cls-2" d="M570.01,406.96c-4.65,6.06-13.73,5.08-12.15-2.43,15.07-12.03,14.69-13.48-1.14-4.36l-27.36,13.96,4.19,2.55c13.05-4.87,8.54,7.79,0,7.29-7.41,9.23-107.37,59.83-126.31,69.27-72.9,36.33-208.14,104.13-282.74,49.32-45.1-33.14-55.95-87.93-42.93-140.44l6.74,4.17c23.81,65.52,25.51,137.33,113.42,139.24,35.65.78,93.2-25.93,125.38-42.51,6.6-3.4,40.55-21.05,42.93-23.86,3.54-4.2,3.06-13.76,7.2-16.51,11.26-7.49,35.87-13.92,50.19-22.09,65.25-37.21,124.11-115.7,209.15-106.19,6.58.74,42.25,9.94,40.35,17.93l-106.92,54.68ZM550.57,409.39c1.84-.91,4.2-3.32,7.29-4.86,19.44-9.67,38.69-19.89,58.32-29.18.67-4.65-2.95-8.7-7.37-6.24-10.78,7.32-90.83,42.93-92.26,48.81,2.96,12.25,10.65,1.77,17.01-1.24,5.66-2.68,11.52-4.58,17.01-7.29Z"/></svg>