<?xml version="1.0" encoding="UTF-8"?><svg id="PRINT" xmlns="http://www.w3.org/2000/svg" viewBox="0 0 768 229.06"><defs><style>.cls-1{fill:#06111c;}.cls-2{fill:#07111d;}.cls-3{fill:#07101c;}.cls-4{fill:#06101c;}.cls-5{fill:#2781c5;}.cls-6{fill:#07111c;}</style></defs><path class="cls-4" d="M663.54,45.28l-11,16.48c-10.46,34.21-1.05,80.07,43.73,74.55,46.07-5.69,43.38-95.21-4.87-89.34-17.34,2.11-23.45,14.07-22.49,30.49-3.85-1.48-2.88-7.76-2.64-11.38,1.85-27.35,34.61-29.28,54.55-19.71,31.7,15.23,36.79,61.32,9.11,83.35-25.56,20.35-75.42,16.61-93.2-12.71-15.76-25.99-4.25-65.42,26.82-71.72Z"/><path class="cls-4" d="M130.96,58.68l-9.37-16.78c-46.5-32.27-80.18,7.16-72.32,56.2,6.84,42.71,59.16,53.47,79.26,15.15l6.45-19.7v27.49c0,5.72-19.73,17.34-25.19,19.07-43.38,13.78-86.63-14.89-83.3-61.81,3.85-54.21,62.9-66.13,104.47-44.42v24.81Z"/><path class="cls-3" d="M304.01,61.36c-3.13-1.1-2.31-4.84-3.97-7.41-10.96-16.97-47.57-1.75-28.24,17.5,15.32,15.25,53.17,26.65,37.13,55.83-9.21,16.76-41.57,19.65-55.03,8.99-4.82-3.82-3.38-20.11-.83-22.61,3.22-3.16,2.8,6.57,3.29,8.09,7.29,22.62,48.11,19.15,41.67-5.45-3.55-13.55-41.5-25.45-44.65-43.85-2.82-16.48,6.78-29.44,23.31-31.02,3.85-.37,23.61.45,26.46,1.37,4.21,1.36-.79,14.05.87,18.57Z"/><path class="cls-2" d="M321.46,41.25h85.85c.64,5.6-1.31,10.11-.36,15.72.49,2.93-.64,1.56-2.31,1.72,2.1-5.13-6.41-10.74-10.07-10.74h-20.12c-1.47,0-1.92,3.27-2.08,4.62-1.86,15.81-1.8,60.68.04,76.53.31,2.7.79,4.64,2.67,6.71,2.29,2.51,5.77,2.12,6.75,4.66h-34.88v-1.32c1.96.28,8.05-3.46,8.05-4.71V49.3c-7.97-1.75-27.52-3.86-31.5,5.39-1.09,2.53.4,6.53-2.04,6.68v-20.11Z"/><path class="cls-4" d="M501.9,42.59c1.11.17,4.47,2.12,3.35,2.67-3.41-1.01-10.73,2.61-10.73,6.05v81.79c0,.14,1.87,2.01,2.01,2.01h22.81c1.61,0,9.61-4.68,11.27-6.17l9.52-11.25-5.36,22.79h-65.74c1.41-2.86,5.05-1.98,7.3-5.44,1.62-2.5,1.87-5.69,2.14-8.59,1.46-15.75,1.95-57.27-.18-72.33-.96-6.74-3.57-9.15-10.6-8.86-.45-.35,1.71-2.67,2.01-2.67,9.22,0,23.83-1.31,32.2,0Z"/><path class="cls-1" d="M583.73,42.59c.5.13,2.4,2.3,2.01,2.67-3.12-.74-9.39,3.2-9.39,6.05v81.79c0,.14,1.87,2.01,2.01,2.01h22.81c6.6,0,15.99-11.02,19.44-16.09.58,3.42-3.46,21.45-6.02,21.45h-62.38c4.3-4.1,7.31-6.23,8.08-12.71,1.78-14.91,1.76-57.53,0-72.47-.35-3.01-1.09-5.27-3.3-7.42-3.67-3.56-7.96-1.03-7.46-5.29,9.29,1.56,25.93-2.11,34.21,0Z"/><path class="cls-6" d="M450.92,42.59c.5.13,2.4,2.3,2.01,2.67-3.94.09-8.54,1.76-9.36,6.08l-.1,79.15c-.14,1.6.55,2.74,1.32,4.04,1.93,3.25,6.69,3.15,8.14,5.95h-36.22c1.01-2.7,4.84-1.21,7.34-4.06,1.44-1.64,1.96-3.83,2.07-5.97l.02-81.58-9.43-3.6c-.58-1.35,3.13-2.67,3.35-2.67,7.14,0,25.42-1.38,30.86,0Z"/><path class="cls-5" d="M510.62,198.13v-24.14c0-.27,5.37-.27,5.37,0v37.54c-1.59-.21-3.88.53-5.15-.23-2.01-1.2-10.52-22.98-14.98-25.24v25.48c0,.27-5.37.27-5.37,0v-37.54c8.03-1.16,11.37,11.8,15.03,17.83,1.3,2.15,2.74,5.26,5.1,6.3Z"/><path class="cls-5" d="M273.17,198.13v-24.14c0-.27,5.37-.27,5.37,0v37.54c-1.59-.2-3.88.52-5.15-.23-1.33-.78-10.9-23.32-14.97-25.25v25.48c-7.38.43-4.02-3-3.96-7.29.13-8.88-.3-17.7-.54-26.56-.13-4.92,2.81-5.21,5.66-1.5,4.84,6.31,7.76,16.39,13.6,21.94Z"/><path class="cls-5" d="M477.08,173.99c2.37,9.19-8.17,4.22-14.76,5.36l-.02,9.96c6.32,3.04,17.11-3.71,14.79,6.13l-14.79.78.02,9.96c6.59,1.14,17.13-3.83,14.76,5.36h-20.12v-37.54h20.12Z"/><path class="cls-5" d="M188.64,207.49c-.25.35-7,3.62-7.65,3.77-31.43,7.28-33.96-43.53-.32-36.66,3.48.71,12.53,5.75,5.91,7.44-2.14.54-6.09-2.43-9.32-2.74-21.2-2.07-19.86,28.23-1.84,27.46,3.9-.17,9.54-3.62,11.09-3.22,1.22.32,2.87,2.91,2.12,3.96Z"/><path class="cls-5" d="M344.26,203.5c3.19,3.2-6.06,7.52-8.79,7.95-32.47,5.12-30.02-45.06,2.13-36.81,3.52.9,10.26,6.37,4.63,7.41-.99.18-5.15-2.42-7.99-2.74-23.22-2.62-22.53,29.86.03,26.94,2.46-.32,8.5-4.24,9.99-2.75Z"/><path class="cls-5" d="M541.47,179.36v32.18c0,.27-5.37.27-5.37,0v-32.18c0-.67-11.44,2.91-8.05-5.36h20.79c4.98,0-.37,8.51-7.38,5.36Z"/><path class="cls-5" d="M604.52,173.99v32.18c0,1.12,17.88-3.64,13.42,5.36h-18.78v-37.54c0-.27,4.41.18,5.37,0Z"/><path class="cls-5" d="M207.43,173.99v32.18c0,1.12,17.88-3.64,13.42,5.36h-18.78v-35.53c0-1.42,3.81-2.55,5.37-2.01Z"/><path class="cls-5" d="M298.65,173.99v37.54c0,.27-5.37.27-5.37,0v-37.54c0-.27,4.41.18,5.37,0Z"/><path class="cls-5" d="M234.26,211.54v-37.54c4.33-.51,4.98.67,5.43,4.62.49,4.25.42,31.05-1.33,32.32-1.32.96-2.66.57-4.1.59Z"/><path class="cls-5" d="M243.65,164.62c-2.3,3.76-5.76,7.67-10.73,6.68,2.3-3.76,5.76-7.67,10.73-6.68Z"/><path class="cls-3" d="M141.69,140.47c1.51-2.42,5.71-2.27,8.52-4.23,1.34-.94,2.63-1.8,3.38-3.32,11.78-30.57,27.49-59.61,37.76-90.73l3.32-.95,39.1,89.72c.69,1.27,1.27,2.64,2.28,3.69,2.41,2.5,7.3,3.02,8.94,5.82h-34.88c8.55-8.55-1.52-19.09-3.88-28.67-1.59-2.06-29.72-.35-34.8-.6-2.88,9.47-12.74,20.64-4.24,29.27h-25.49ZM201.39,105.61c.2,0,2.56-1.89,1.48-2.78-2.56-3.97-11.33-32.07-13.56-32.06-3.59,3.48-15.45,33.45-14.09,34.84h26.16Z"/><path class="cls-5" d="M420.73,211.54v-37.54c31.05-3.52,30.75,41.34,0,37.54ZM426.1,206.17c16.98-1.09,17.79-25.79,0-26.82v26.82Z"/><path class="cls-5" d="M384.51,211.53c-.19.18-4.76.23-5.21-.15-.5-.42-2.21-10.05-4.03-12.43-1.04-1.35-10.14-1.21-10.74-.69-1.96,1.7-.5,16.38-9.52,13.26,2.89-4.58,11.67-36.12,13.43-37.53,2.04-1.62,4.04,2.69,4.69,4.01,1.51,3.09,12.7,32.33,11.39,33.52ZM369.1,194.1c5.15-.79,2.75-4.69,1.98-8.04-2.38.34-5.27,7.39-1.98,8.04Z"/><path class="cls-5" d="M587.08,211.53c-.19.18-4.75.23-5.21-.15-3.57-2.95,2.63-16.16-14.13-13.33-1.35.23-1.45,17.07-10.16,13.48l13.42-37.54c2.99-.5,3.66,1.9,4.69,4.01,1.51,3.09,12.7,32.33,11.39,33.52ZM571.67,194.09c6.58,1.57,3.17-4.63,1.98-8.03-2.57.67-5.2,7.26-1.98,8.03Z"/></svg>